<mxfile host="65bd71144e">
    <diagram id="DbsbeWLpcUZKwt4Y_dvR" name="Page-1">
        <mxGraphModel dx="1790" dy="402" grid="1" gridSize="10" guides="1" tooltips="1" connect="1" arrows="1" fold="1" page="1" pageScale="1" pageWidth="850" pageHeight="1100" math="0" shadow="0">
            <root>
                <mxCell id="0"/>
                <mxCell id="1" parent="0"/>
                <mxCell id="2" value="&lt;b&gt;Grafana&lt;/b&gt;&lt;br&gt;&lt;br&gt;dashboard-instance&lt;br&gt;&lt;br&gt;dashboard-solution" style="rounded=0;whiteSpace=wrap;html=1;" parent="1" vertex="1">
                    <mxGeometry x="700" y="260" width="160" height="200" as="geometry"/>
                </mxCell>
                <mxCell id="6" style="edgeStyle=none;html=1;exitX=0.5;exitY=1;exitDx=0;exitDy=0;entryX=0.5;entryY=0;entryDx=0;entryDy=0;" parent="1" source="4" target="5" edge="1">
                    <mxGeometry relative="1" as="geometry"/>
                </mxCell>
                <mxCell id="4" value="Generador de instancias de problema" style="rounded=0;whiteSpace=wrap;html=1;fillColor=#dae8fc;strokeColor=#6c8ebf;" parent="1" vertex="1">
                    <mxGeometry x="40" y="160" width="120" height="80" as="geometry"/>
                </mxCell>
                <mxCell id="7" value="data source" style="edgeStyle=none;html=1;entryX=0;entryY=0.5;entryDx=0;entryDy=0;" parent="1" source="5" target="2" edge="1">
                    <mxGeometry relative="1" as="geometry"/>
                </mxCell>
                <mxCell id="9" style="edgeStyle=none;html=1;exitX=0.5;exitY=1;exitDx=0;exitDy=0;entryX=0;entryY=0.5;entryDx=0;entryDy=0;" parent="1" source="5" target="8" edge="1">
                    <mxGeometry relative="1" as="geometry">
                        <Array as="points">
                            <mxPoint x="100" y="560"/>
                        </Array>
                    </mxGeometry>
                </mxCell>
                <mxCell id="5" value="Instancia de problema (JSON)" style="rounded=0;whiteSpace=wrap;html=1;" parent="1" vertex="1">
                    <mxGeometry x="40" y="320" width="120" height="80" as="geometry"/>
                </mxCell>
                <mxCell id="11" style="edgeStyle=none;html=1;exitX=1;exitY=0.5;exitDx=0;exitDy=0;entryX=0;entryY=0.5;entryDx=0;entryDy=0;" parent="1" source="8" target="10" edge="1">
                    <mxGeometry relative="1" as="geometry"/>
                </mxCell>
                <mxCell id="8" value="Algoritmo" style="rounded=0;whiteSpace=wrap;html=1;fillColor=#dae8fc;strokeColor=#6c8ebf;" parent="1" vertex="1">
                    <mxGeometry x="200" y="520" width="120" height="80" as="geometry"/>
                </mxCell>
                <mxCell id="12" style="edgeStyle=none;html=1;exitX=1;exitY=0.5;exitDx=0;exitDy=0;entryX=0;entryY=0.75;entryDx=0;entryDy=0;" parent="1" source="10" target="2" edge="1">
                    <mxGeometry relative="1" as="geometry"/>
                </mxCell>
                <mxCell id="10" value="Soluci贸n (JSON)" style="rounded=0;whiteSpace=wrap;html=1;" parent="1" vertex="1">
                    <mxGeometry x="440" y="520" width="120" height="80" as="geometry"/>
                </mxCell>
                <mxCell id="16" style="edgeStyle=none;html=1;exitX=1;exitY=0.5;exitDx=0;exitDy=0;exitPerimeter=0;entryX=0;entryY=0.5;entryDx=0;entryDy=0;" parent="1" source="14" target="15" edge="1">
                    <mxGeometry relative="1" as="geometry"/>
                </mxCell>
                <mxCell id="14" value="Base de datos de vuelos" style="shape=cylinder3;whiteSpace=wrap;html=1;boundedLbl=1;backgroundOutline=1;size=15;" parent="1" vertex="1">
                    <mxGeometry x="-300" y="320" width="60" height="80" as="geometry"/>
                </mxCell>
                <mxCell id="17" style="edgeStyle=none;html=1;exitX=1;exitY=0.5;exitDx=0;exitDy=0;entryX=0;entryY=0.5;entryDx=0;entryDy=0;" parent="1" source="15" target="5" edge="1">
                    <mxGeometry relative="1" as="geometry"/>
                </mxCell>
                <mxCell id="15" value="Algoritmo de predicci贸n" style="rounded=0;whiteSpace=wrap;html=1;fillColor=#dae8fc;strokeColor=#6c8ebf;" parent="1" vertex="1">
                    <mxGeometry x="-160" y="320" width="120" height="80" as="geometry"/>
                </mxCell>
            </root>
        </mxGraphModel>
    </diagram>
    <diagram id="1B-rI9v4Bw7Q5by51ZNb" name="Page-2">
        <mxGraphModel dx="1790" dy="402" grid="1" gridSize="10" guides="1" tooltips="1" connect="1" arrows="1" fold="1" page="1" pageScale="1" pageWidth="850" pageHeight="1100" math="0" shadow="0">
            <root>
                <mxCell id="0"/>
                <mxCell id="1" parent="0"/>
                <mxCell id="UQduyblCxGpKAgAmUQ8X-8" style="edgeStyle=none;html=1;exitX=0.5;exitY=1;exitDx=0;exitDy=0;entryX=0.5;entryY=0;entryDx=0;entryDy=0;" parent="1" source="UQduyblCxGpKAgAmUQ8X-2" target="UQduyblCxGpKAgAmUQ8X-7" edge="1">
                    <mxGeometry relative="1" as="geometry"/>
                </mxCell>
                <mxCell id="UQduyblCxGpKAgAmUQ8X-2" value="Instancia de problema (JSON)" style="rounded=0;whiteSpace=wrap;html=1;" parent="1" vertex="1">
                    <mxGeometry x="80" y="360" width="120" height="80" as="geometry"/>
                </mxCell>
                <mxCell id="UQduyblCxGpKAgAmUQ8X-3" style="edgeStyle=none;html=1;exitX=1;exitY=0.5;exitDx=0;exitDy=0;entryX=0;entryY=0.5;entryDx=0;entryDy=0;" parent="1" source="UQduyblCxGpKAgAmUQ8X-4" target="UQduyblCxGpKAgAmUQ8X-5" edge="1">
                    <mxGeometry relative="1" as="geometry"/>
                </mxCell>
                <mxCell id="UQduyblCxGpKAgAmUQ8X-4" value="Reference solver" style="rounded=0;whiteSpace=wrap;html=1;fillColor=#dae8fc;strokeColor=#6c8ebf;" parent="1" vertex="1">
                    <mxGeometry x="480" y="360" width="120" height="80" as="geometry"/>
                </mxCell>
                <mxCell id="UQduyblCxGpKAgAmUQ8X-5" value="Soluci贸n (JSON)" style="rounded=0;whiteSpace=wrap;html=1;" parent="1" vertex="1">
                    <mxGeometry x="760" y="360" width="120" height="80" as="geometry"/>
                </mxCell>
                <mxCell id="UQduyblCxGpKAgAmUQ8X-10" style="edgeStyle=none;html=1;exitX=0.5;exitY=1;exitDx=0;exitDy=0;entryX=0.5;entryY=0;entryDx=0;entryDy=0;" parent="1" source="UQduyblCxGpKAgAmUQ8X-7" target="UQduyblCxGpKAgAmUQ8X-9" edge="1">
                    <mxGeometry relative="1" as="geometry"/>
                </mxCell>
                <mxCell id="UQduyblCxGpKAgAmUQ8X-13" style="edgeStyle=none;html=1;exitX=0;exitY=0.25;exitDx=0;exitDy=0;entryX=1;entryY=0.5;entryDx=0;entryDy=0;" parent="1" source="UQduyblCxGpKAgAmUQ8X-7" target="UQduyblCxGpKAgAmUQ8X-12" edge="1">
                    <mxGeometry relative="1" as="geometry"/>
                </mxCell>
                <mxCell id="UQduyblCxGpKAgAmUQ8X-15" style="edgeStyle=none;html=1;exitX=0;exitY=0.5;exitDx=0;exitDy=0;entryX=1;entryY=0.5;entryDx=0;entryDy=0;" parent="1" source="UQduyblCxGpKAgAmUQ8X-7" target="UQduyblCxGpKAgAmUQ8X-14" edge="1">
                    <mxGeometry relative="1" as="geometry"/>
                </mxCell>
                <mxCell id="UQduyblCxGpKAgAmUQ8X-7" value="Conversor" style="rounded=0;whiteSpace=wrap;html=1;fillColor=#dae8fc;strokeColor=#6c8ebf;" parent="1" vertex="1">
                    <mxGeometry x="80" y="520" width="120" height="80" as="geometry"/>
                </mxCell>
                <mxCell id="UQduyblCxGpKAgAmUQ8X-11" style="edgeStyle=none;html=1;exitX=1;exitY=0.5;exitDx=0;exitDy=0;entryX=0;entryY=0.5;entryDx=0;entryDy=0;" parent="1" source="UQduyblCxGpKAgAmUQ8X-9" target="UQduyblCxGpKAgAmUQ8X-4" edge="1">
                    <mxGeometry relative="1" as="geometry"/>
                </mxCell>
                <mxCell id="UQduyblCxGpKAgAmUQ8X-9" value="Instancia de problema adaptada (JSON)" style="rounded=0;whiteSpace=wrap;html=1;" parent="1" vertex="1">
                    <mxGeometry x="80" y="680" width="120" height="80" as="geometry"/>
                </mxCell>
                <mxCell id="UQduyblCxGpKAgAmUQ8X-12" value="Crear servicio ficticio de 0-8, 8-16, 16-24 (para cada rol)" style="text;html=1;align=center;verticalAlign=middle;whiteSpace=wrap;rounded=0;" parent="1" vertex="1">
                    <mxGeometry x="-160" y="440" width="160" height="80" as="geometry"/>
                </mxCell>
                <mxCell id="UQduyblCxGpKAgAmUQ8X-14" value="Crear empleados suficientes para resolver la instancia original" style="text;html=1;align=center;verticalAlign=middle;whiteSpace=wrap;rounded=0;" parent="1" vertex="1">
                    <mxGeometry x="-160" y="520" width="160" height="80" as="geometry"/>
                </mxCell>
            </root>
        </mxGraphModel>
    </diagram>
    <diagram id="gxfYGXgELIx7Flvll-nT" name="Generaci贸nInstancias">
        <mxGraphModel dx="940" dy="402" grid="1" gridSize="10" guides="1" tooltips="1" connect="1" arrows="1" fold="1" page="1" pageScale="1" pageWidth="850" pageHeight="1100" math="0" shadow="0">
            <root>
                <mxCell id="0"/>
                <mxCell id="1" parent="0"/>
                <mxCell id="orH4bXP0v_yKZjBhlMf0-4" style="edgeStyle=none;html=1;exitX=1;exitY=0.5;exitDx=0;exitDy=0;entryX=0;entryY=0.25;entryDx=0;entryDy=0;" parent="1" source="orH4bXP0v_yKZjBhlMf0-1" target="orH4bXP0v_yKZjBhlMf0-3" edge="1">
                    <mxGeometry relative="1" as="geometry"/>
                </mxCell>
                <mxCell id="orH4bXP0v_yKZjBhlMf0-1" value="Archivo de vuelos" style="rounded=0;whiteSpace=wrap;html=1;" parent="1" vertex="1">
                    <mxGeometry x="40" y="80" width="120" height="40" as="geometry"/>
                </mxCell>
                <mxCell id="orH4bXP0v_yKZjBhlMf0-6" style="edgeStyle=none;html=1;exitX=1;exitY=0.5;exitDx=0;exitDy=0;entryX=0;entryY=0.5;entryDx=0;entryDy=0;" parent="1" source="orH4bXP0v_yKZjBhlMf0-3" target="orH4bXP0v_yKZjBhlMf0-5" edge="1">
                    <mxGeometry relative="1" as="geometry"/>
                </mxCell>
                <mxCell id="orH4bXP0v_yKZjBhlMf0-3" value="Generador de instancias de problema" style="rounded=0;whiteSpace=wrap;html=1;fillColor=#dae8fc;strokeColor=#6c8ebf;" parent="1" vertex="1">
                    <mxGeometry x="320" y="160" width="120" height="80" as="geometry"/>
                </mxCell>
                <mxCell id="orH4bXP0v_yKZjBhlMf0-11" style="edgeStyle=none;html=1;exitX=1;exitY=0.5;exitDx=0;exitDy=0;entryX=0;entryY=0.5;entryDx=0;entryDy=0;" parent="1" source="orH4bXP0v_yKZjBhlMf0-5" target="orH4bXP0v_yKZjBhlMf0-10" edge="1">
                    <mxGeometry relative="1" as="geometry"/>
                </mxCell>
                <mxCell id="orH4bXP0v_yKZjBhlMf0-15" style="edgeStyle=none;html=1;exitX=1;exitY=0.75;exitDx=0;exitDy=0;entryX=0;entryY=0.5;entryDx=0;entryDy=0;" parent="1" source="orH4bXP0v_yKZjBhlMf0-5" target="orH4bXP0v_yKZjBhlMf0-14" edge="1">
                    <mxGeometry relative="1" as="geometry"/>
                </mxCell>
                <mxCell id="orH4bXP0v_yKZjBhlMf0-5" value="Instancia del problema" style="rounded=0;whiteSpace=wrap;html=1;" parent="1" vertex="1">
                    <mxGeometry x="520" y="160" width="120" height="80" as="geometry"/>
                </mxCell>
                <mxCell id="orH4bXP0v_yKZjBhlMf0-8" style="edgeStyle=none;html=1;exitX=1;exitY=0.5;exitDx=0;exitDy=0;entryX=0;entryY=0.75;entryDx=0;entryDy=0;" parent="1" source="orH4bXP0v_yKZjBhlMf0-7" target="orH4bXP0v_yKZjBhlMf0-3" edge="1">
                    <mxGeometry relative="1" as="geometry"/>
                </mxCell>
                <mxCell id="orH4bXP0v_yKZjBhlMf0-7" value="&lt;div&gt;Aeropuerto tratado&lt;/div&gt;&lt;div&gt;&lt;br&gt;&lt;/div&gt;N煤mero de asistencias a generar&lt;div&gt;&lt;br&gt;&lt;/div&gt;&lt;div&gt;N煤mero de empleados de cada rol&lt;/div&gt;" style="text;html=1;align=center;verticalAlign=middle;whiteSpace=wrap;rounded=0;" parent="1" vertex="1">
                    <mxGeometry x="40" y="240" width="120" height="80" as="geometry"/>
                </mxCell>
                <mxCell id="orH4bXP0v_yKZjBhlMf0-9" value="Cada asistencia dura 1:10 horas:&lt;div&gt;- Salida: 1 hora antes de la salida y 10 minutos despu茅s de la salida&lt;/div&gt;&lt;div&gt;&lt;span style=&quot;color: rgb(63, 63, 63);&quot;&gt;- Llegada: 10 min. antes de la llegada y 1 despu茅s de la llegada&lt;/span&gt;&lt;/div&gt;&lt;div&gt;&lt;span style=&quot;color: rgb(63, 63, 63);&quot;&gt;&lt;br&gt;&lt;/span&gt;&lt;/div&gt;&lt;div&gt;&lt;span style=&quot;color: rgb(63, 63, 63);&quot;&gt;Cada asistencia necesita un agente!&lt;/span&gt;&lt;/div&gt;" style="text;html=1;align=left;verticalAlign=middle;whiteSpace=wrap;rounded=0;" parent="1" vertex="1">
                    <mxGeometry x="280" y="280" width="400" height="80" as="geometry"/>
                </mxCell>
                <mxCell id="orH4bXP0v_yKZjBhlMf0-13" style="edgeStyle=none;html=1;exitX=1;exitY=0.5;exitDx=0;exitDy=0;entryX=0;entryY=0.5;entryDx=0;entryDy=0;" parent="1" source="orH4bXP0v_yKZjBhlMf0-10" target="orH4bXP0v_yKZjBhlMf0-12" edge="1">
                    <mxGeometry relative="1" as="geometry"/>
                </mxCell>
                <mxCell id="orH4bXP0v_yKZjBhlMf0-10" value="Algoritmo" style="rounded=0;whiteSpace=wrap;html=1;fillColor=#dae8fc;strokeColor=#6c8ebf;" parent="1" vertex="1">
                    <mxGeometry x="760" y="80" width="120" height="40" as="geometry"/>
                </mxCell>
                <mxCell id="orH4bXP0v_yKZjBhlMf0-12" value="Soluci贸n" style="rounded=0;whiteSpace=wrap;html=1;" parent="1" vertex="1">
                    <mxGeometry x="960" y="80" width="120" height="40" as="geometry"/>
                </mxCell>
                <mxCell id="orH4bXP0v_yKZjBhlMf0-17" style="edgeStyle=none;html=1;exitX=1;exitY=0.5;exitDx=0;exitDy=0;entryX=0;entryY=0.5;entryDx=0;entryDy=0;" parent="1" source="orH4bXP0v_yKZjBhlMf0-14" target="orH4bXP0v_yKZjBhlMf0-16" edge="1">
                    <mxGeometry relative="1" as="geometry"/>
                </mxCell>
                <mxCell id="orH4bXP0v_yKZjBhlMf0-19" style="edgeStyle=none;html=1;exitX=0.25;exitY=1;exitDx=0;exitDy=0;entryX=0.5;entryY=0;entryDx=0;entryDy=0;" parent="1" source="orH4bXP0v_yKZjBhlMf0-14" target="orH4bXP0v_yKZjBhlMf0-18" edge="1">
                    <mxGeometry relative="1" as="geometry"/>
                </mxCell>
                <mxCell id="orH4bXP0v_yKZjBhlMf0-14" value="Reference Solver" style="rounded=0;whiteSpace=wrap;html=1;fillColor=#dae8fc;strokeColor=#6c8ebf;" parent="1" vertex="1">
                    <mxGeometry x="760" y="240" width="120" height="40" as="geometry"/>
                </mxCell>
                <mxCell id="orH4bXP0v_yKZjBhlMf0-16" value="Soluci贸n" style="rounded=0;whiteSpace=wrap;html=1;" parent="1" vertex="1">
                    <mxGeometry x="960" y="240" width="120" height="40" as="geometry"/>
                </mxCell>
                <mxCell id="orH4bXP0v_yKZjBhlMf0-22" style="edgeStyle=none;html=1;exitX=1;exitY=0.5;exitDx=0;exitDy=0;entryX=0;entryY=0.5;entryDx=0;entryDy=0;" parent="1" source="orH4bXP0v_yKZjBhlMf0-18" target="orH4bXP0v_yKZjBhlMf0-20" edge="1">
                    <mxGeometry relative="1" as="geometry"/>
                </mxCell>
                <mxCell id="orH4bXP0v_yKZjBhlMf0-18" value="A帽adir datos ficticios" style="rounded=0;whiteSpace=wrap;html=1;fillColor=#dae8fc;strokeColor=#6c8ebf;" parent="1" vertex="1">
                    <mxGeometry x="680" y="320" width="80" height="40" as="geometry"/>
                </mxCell>
                <mxCell id="orH4bXP0v_yKZjBhlMf0-24" style="edgeStyle=none;html=1;exitX=1;exitY=0.5;exitDx=0;exitDy=0;entryX=0;entryY=0.5;entryDx=0;entryDy=0;" parent="1" source="orH4bXP0v_yKZjBhlMf0-20" target="orH4bXP0v_yKZjBhlMf0-23" edge="1">
                    <mxGeometry relative="1" as="geometry"/>
                </mxCell>
                <mxCell id="orH4bXP0v_yKZjBhlMf0-20" value="Resuelves instancia con datos ficticios" style="rounded=0;whiteSpace=wrap;html=1;fillColor=#dae8fc;strokeColor=#6c8ebf;" parent="1" vertex="1">
                    <mxGeometry x="800" y="320" width="80" height="40" as="geometry"/>
                </mxCell>
                <mxCell id="orH4bXP0v_yKZjBhlMf0-25" style="edgeStyle=none;html=1;exitX=0.5;exitY=0;exitDx=0;exitDy=0;entryX=0.75;entryY=1;entryDx=0;entryDy=0;" parent="1" source="orH4bXP0v_yKZjBhlMf0-23" target="orH4bXP0v_yKZjBhlMf0-14" edge="1">
                    <mxGeometry relative="1" as="geometry"/>
                </mxCell>
                <mxCell id="orH4bXP0v_yKZjBhlMf0-23" value="Eliminar datos fictcios" style="rounded=0;whiteSpace=wrap;html=1;fillColor=#f8cecc;strokeColor=#b85450;" parent="1" vertex="1">
                    <mxGeometry x="920" y="320" width="80" height="40" as="geometry"/>
                </mxCell>
                <mxCell id="orH4bXP0v_yKZjBhlMf0-26" value="Para cada instancia:&lt;div&gt;- Medir tiempo computacional (ms).&lt;/div&gt;&lt;div&gt;- Calidad de la soluci贸n (productividad)&lt;/div&gt;" style="text;html=1;align=left;verticalAlign=middle;whiteSpace=wrap;rounded=0;" parent="1" vertex="1">
                    <mxGeometry x="1120" y="140" width="240" height="80" as="geometry"/>
                </mxCell>
            </root>
        </mxGraphModel>
    </diagram>
</mxfile>